<svg width="22" height="23" viewBox="0 0 22 23" fill="none" xmlns="http://www.w3.org/2000/svg">
<path d="M11.2965 5.01375C13.4125 5.01375 13.6631 5.02303 14.4952 5.06015C15.2686 5.09418 15.6862 5.22411 15.9646 5.33238C16.3328 5.47468 16.5988 5.64791 16.8741 5.92323C17.1525 6.20165 17.3227 6.4646 17.465 6.83272C17.5732 7.11114 17.7032 7.53185 17.7372 8.30213C17.7743 9.13738 17.7836 9.38795 17.7836 11.5008C17.7836 13.6168 17.7743 13.8673 17.7372 14.6995C17.7032 15.4729 17.5732 15.8905 17.465 16.1689C17.3227 16.537 17.1494 16.8031 16.8741 17.0784C16.5957 17.3568 16.3328 17.5269 15.9646 17.6692C15.6862 17.7775 15.2655 17.9074 14.4952 17.9415C13.66 17.9786 13.4094 17.9879 11.2965 17.9879C9.18059 17.9879 8.93002 17.9786 8.09787 17.9415C7.3245 17.9074 6.90687 17.7775 6.62846 17.6692C6.26033 17.5269 5.99429 17.3537 5.71897 17.0784C5.44056 16.8 5.27042 16.537 5.12812 16.1689C5.01984 15.8905 4.88992 15.4698 4.85589 14.6995C4.81877 13.8642 4.80949 13.6137 4.80949 11.5008C4.80949 9.38486 4.81877 9.13428 4.85589 8.30213C4.88992 7.52876 5.01984 7.11114 5.12812 6.83272C5.27042 6.4646 5.44365 6.19856 5.71897 5.92323C5.99739 5.64482 6.26033 5.47468 6.62846 5.33238C6.90687 5.22411 7.32759 5.09418 8.09787 5.06015C8.93002 5.02303 9.18059 5.01375 11.2965 5.01375ZM11.2965 3.58765C9.14656 3.58765 8.87743 3.59693 8.03291 3.63405C7.19148 3.67117 6.61299 3.80728 6.11185 4.00217C5.58905 4.20635 5.14668 4.47548 4.7074 4.91785C4.26503 5.35713 3.9959 5.7995 3.79173 6.3192C3.59684 6.82344 3.46072 7.39883 3.4236 8.24026C3.38648 9.08788 3.3772 9.35701 3.3772 11.507C3.3772 13.657 3.38648 13.9261 3.4236 14.7706C3.46072 15.6121 3.59684 16.1905 3.79173 16.6917C3.9959 17.2145 4.26503 17.6569 4.7074 18.0961C5.14668 18.5354 5.58905 18.8076 6.10875 19.0087C6.61299 19.2036 7.18838 19.3397 8.02981 19.3768C8.87434 19.414 9.14347 19.4232 11.2934 19.4232C13.4434 19.4232 13.7126 19.414 14.5571 19.3768C15.3985 19.3397 15.977 19.2036 16.4781 19.0087C16.9979 18.8076 17.4402 18.5354 17.8795 18.0961C18.3188 17.6569 18.591 17.2145 18.7921 16.6948C18.987 16.1905 19.1231 15.6152 19.1602 14.7737C19.1973 13.9292 19.2066 13.6601 19.2066 11.5101C19.2066 9.36011 19.1973 9.09097 19.1602 8.24645C19.1231 7.40502 18.987 6.82654 18.7921 6.32539C18.5972 5.79949 18.3281 5.35713 17.8857 4.91785C17.4464 4.47857 17.004 4.20635 16.4843 4.00527C15.9801 3.81038 15.4047 3.67426 14.5633 3.63714C13.7157 3.59693 13.4465 3.58765 11.2965 3.58765Z" fill="#FEF500"/>
<path d="M11.2967 7.43896C9.05083 7.43896 7.22876 9.26103 7.22876 11.5069C7.22876 13.7528 9.05083 15.5749 11.2967 15.5749C13.5426 15.5749 15.3646 13.7528 15.3646 11.5069C15.3646 9.26103 13.5426 7.43896 11.2967 7.43896ZM11.2967 14.1457C9.83967 14.1457 8.65795 12.9639 8.65795 11.5069C8.65795 10.0499 9.83967 8.86816 11.2967 8.86816C12.7537 8.86816 13.9355 10.0499 13.9355 11.5069C13.9355 12.9639 12.7537 14.1457 11.2967 14.1457Z" fill="#FEF500"/>
<path d="M16.475 7.27783C16.475 7.80372 16.0481 8.22753 15.5253 8.22753C14.9994 8.22753 14.5756 7.80063 14.5756 7.27783C14.5756 6.75193 15.0025 6.32812 15.5253 6.32812C16.0481 6.32812 16.475 6.75503 16.475 7.27783Z" fill="#FEF500"/>
</svg>
