<svg width="19" height="19" viewBox="0 0 19 19" fill="none" xmlns="http://www.w3.org/2000/svg">
<path fill-rule="evenodd" clip-rule="evenodd" d="M9.61441 0.921387C4.76993 0.921387 0.842896 4.84842 0.842896 9.6929C0.842896 14.5374 4.76993 18.4644 9.61441 18.4644C14.4589 18.4644 18.3857 14.5372 18.3857 9.6929C18.3857 4.8486 14.4587 0.921387 9.61441 0.921387ZM11.6526 7.32309L11.6524 7.60544H11.652V11.4001C11.652 12.3047 11.2956 13.1652 10.656 13.8049C10.0163 14.4445 9.15586 14.8006 8.25145 14.8006C7.34703 14.8006 6.48651 14.4445 5.84694 13.8049C5.20726 13.1652 4.85091 12.3048 4.85091 11.4001C4.85091 10.4953 5.20726 9.63517 5.84694 8.99555C6.48657 8.35586 7.34686 7.99952 8.25145 7.99952H8.88247V9.78719H8.25145C7.82197 9.78719 7.41458 9.95594 7.11084 10.2597C6.80716 10.5634 6.63858 10.9706 6.63858 11.4001C6.63858 11.8295 6.80716 12.2369 7.11084 12.5407C7.41458 12.8442 7.82203 13.0131 8.25145 13.0131C8.68087 13.0131 9.08831 12.8442 9.39205 12.5407C9.69556 12.2369 9.86432 11.8297 9.86432 11.4038V4.5852H11.6445L11.7337 4.75024C12.0109 5.26395 12.3847 5.75098 12.8484 6.11029C13.2069 6.38822 13.6126 6.5843 14.0609 6.66289L14.3777 6.71847L14.0377 8.4419L13.7332 8.38749C13.3705 8.32267 13.0144 8.21263 12.681 8.0555C12.2983 7.87494 11.9433 7.63137 11.6526 7.32309Z" fill="#FEF500"/>
</svg>
